<svg width="24" height="25" viewBox="0 0 24 25" fill="none" xmlns="http://www.w3.org/2000/svg">
<path d="M15.9872 3.57929C16.6067 3.22092 17.3705 3.22092 17.99 3.57929L21.1763 5.42239C21.7943 5.77987 22.1749 6.43968 22.1749 7.15362V10.8464C22.1749 11.5604 21.7943 12.2202 21.1763 12.5776L17.99 14.4207C17.3705 14.7791 16.6067 14.7791 15.9872 14.4207L12.8009 12.5776C12.1829 12.2202 11.8023 11.5604 11.8023 10.8464V7.15362C11.8023 6.43968 12.1829 5.77987 12.8009 5.42239L15.9872 3.57929Z" fill="#FECB38"/>
<path d="M17.2108 7.59194V16.148C17.2108 16.148 16.7744 16.9979 15.3094 17.7946C13.8444 18.5912 11.7187 19 9.60538 19C7.49204 19 5.36633 18.5912 3.90135 17.7946C2.43636 16.9979 2 16.148 2 16.148V7.59194" stroke="#151513" stroke-width="0.5"/>
<path d="M9.60538 0.937515C13.3853 0.937515 17.2108 2.1621 17.2108 4.50254V12.5238C17.2108 12.5238 16.7744 13.3206 15.3094 14.0675C13.8444 14.8144 11.7187 15.1976 9.60538 15.1976C7.49204 15.1976 5.36633 14.8144 3.90135 14.0675C2.43636 13.3206 2 12.5238 2 12.5238V4.50254C2 2.1621 5.82551 0.937515 9.60538 0.937515Z" stroke="#151513" stroke-width="0.5"/>
<path d="M2 8.5431C2 8.5431 2.43636 9.393 3.90135 10.1897C5.36633 10.9863 7.49204 11.3951 9.60538 11.3951C11.7187 11.3951 13.8444 10.9863 15.3094 10.1897C16.7744 9.393 17.2108 8.5431 17.2108 8.5431" stroke="#151513" stroke-width="0.5"/>
<path d="M2 4.74031C2 4.74031 2.43636 5.59021 3.90135 6.38687C5.36633 7.18354 7.49204 7.59233 9.60538 7.59233C11.7187 7.59233 13.8444 7.18354 15.3094 6.38687C16.7744 5.59021 17.2108 4.74031 17.2108 4.74031" stroke="#151513" stroke-width="0.5"/>
<circle cx="17" cy="18" r="6.75" fill="white" stroke="#151513" stroke-width="0.5"/>
<path d="M18.5101 17.6731C18.8237 17.4432 19.0614 17.1096 19.188 16.7213C19.3146 16.3331 19.3236 15.9107 19.2134 15.5165C19.1033 15.1223 18.88 14.7771 18.5763 14.5318C18.2727 14.2864 17.9048 14.154 17.527 14.1539V13.1923C17.527 13.1413 17.5084 13.0924 17.4753 13.0563C17.4422 13.0203 17.3974 13 17.3506 13C17.3038 13 17.259 13.0203 17.2259 13.0563C17.1928 13.0924 17.1743 13.1413 17.1743 13.1923V14.1539H16.1162V13.1923C16.1162 13.1413 16.0976 13.0924 16.0645 13.0563C16.0315 13.0203 15.9866 13 15.9398 13C15.8931 13 15.8482 13.0203 15.8151 13.0563C15.7821 13.0924 15.7635 13.1413 15.7635 13.1923V14.1539H14.1763C14.1296 14.1539 14.0847 14.1741 14.0517 14.2102C14.0186 14.2463 14 14.2952 14 14.3462C14 14.3972 14.0186 14.4461 14.0517 14.4822C14.0847 14.5182 14.1296 14.5385 14.1763 14.5385H14.7054V21.4616H14.1763C14.1296 21.4616 14.0847 21.4818 14.0517 21.5179C14.0186 21.5539 14 21.6029 14 21.6539C14 21.7049 14.0186 21.7538 14.0517 21.7898C14.0847 21.8259 14.1296 21.8462 14.1763 21.8462H15.7635V22.8077C15.7635 22.8587 15.7821 22.9076 15.8151 22.9437C15.8482 22.9798 15.8931 23 15.9398 23C15.9866 23 16.0315 22.9798 16.0645 22.9437C16.0976 22.9076 16.1162 22.8587 16.1162 22.8077V21.8462H17.1743V22.8077C17.1743 22.8587 17.1928 22.9076 17.2259 22.9437C17.259 22.9798 17.3038 23 17.3506 23C17.3974 23 17.4422 22.9798 17.4753 22.9437C17.5084 22.9076 17.527 22.8587 17.527 22.8077V21.8462H18.056C18.5316 21.8473 18.991 21.6578 19.3469 21.3138C19.7028 20.9697 19.9304 20.4951 19.9865 19.9801C20.0425 19.465 19.9231 18.9455 19.6509 18.5202C19.3787 18.0948 18.9727 17.7934 18.5101 17.6731ZM18.9377 16.0769C18.9366 16.4846 18.7876 16.8752 18.5232 17.1634C18.2589 17.4516 17.9008 17.6141 17.527 17.6154H15.0581V14.5385H17.527C17.9008 14.5397 18.2589 14.7022 18.5232 14.9905C18.7876 15.2787 18.9366 15.6693 18.9377 16.0769ZM18.056 21.4616H15.0581V18H18.056C18.4769 18 18.8806 18.1824 19.1783 18.5069C19.4759 18.8315 19.6431 19.2718 19.6431 19.7308C19.6431 20.1898 19.4759 20.63 19.1783 20.9546C18.8806 21.2792 18.4769 21.4616 18.056 21.4616Z" fill="black"/>
</svg>
