<svg width="60" height="21" viewBox="0 0 60 21" fill="none" xmlns="http://www.w3.org/2000/svg">
<g clip-path="url(#clip0_2_73)">
<path d="M24.2235 13.8018H23.8353C23.274 13.8011 22.7359 13.5656 22.339 13.1468C21.9422 12.728 21.7189 12.1603 21.7183 11.5681V7.2998H22.991C23.3553 7.2998 23.7046 7.14713 23.9621 6.87539C24.2197 6.60364 24.3644 6.23508 24.3644 5.85077C24.3644 5.46646 24.2197 5.09789 23.9621 4.82615C23.7046 4.5544 23.3553 4.40174 22.991 4.40174H21.7183V1.4407C21.7183 1.05839 21.5743 0.691729 21.3181 0.421391C21.0619 0.151052 20.7144 -0.000823975 20.3521 -0.000823975C19.9897 -0.000823975 19.6422 0.151052 19.386 0.421391C19.1298 0.691729 18.9858 1.05839 18.9858 1.4407V11.5672C18.9871 12.924 19.4984 14.2247 20.4075 15.1842C21.3167 16.1436 22.5495 16.6833 23.8353 16.6848H24.2229C24.5852 16.6848 24.9327 16.5329 25.189 16.2626C25.4452 15.9923 25.5891 15.6256 25.5891 15.2433C25.5891 14.861 25.4452 14.4943 25.189 14.224C24.9327 13.9536 24.5852 13.8018 24.2229 13.8018H24.2235Z" fill="#FECB38"/>
<path d="M32.6013 16.6848H31.8071C30.3002 16.6831 28.8556 16.0507 27.7901 14.9265C26.7245 13.8022 26.1252 12.278 26.1235 10.6881C26.1284 8.99903 26.768 7.38096 27.9021 6.18885C29.0363 4.99674 30.5722 4.32794 32.1731 4.32916H32.2901C33.0634 4.32919 33.8292 4.48995 34.5436 4.80226C35.2581 5.11457 35.9072 5.57232 36.454 6.14936C37.0008 6.72639 37.4345 7.41142 37.7303 8.16532C38.0261 8.91921 38.1783 9.72721 38.1782 10.5432L38.177 15.2281C38.1769 15.6103 38.0329 15.9769 37.7767 16.2471C37.5205 16.5174 37.173 16.6692 36.8107 16.6692C36.6313 16.6691 36.4537 16.6318 36.2879 16.5593C36.1222 16.4868 35.9716 16.3806 35.8448 16.2467C35.718 16.1128 35.6174 15.9538 35.5487 15.7789C35.4801 15.604 35.4448 15.4165 35.4449 15.2272L35.4461 10.5425C35.4462 10.1053 35.3646 9.67227 35.2061 9.26826C35.0475 8.86424 34.8151 8.49714 34.5221 8.1879C34.2291 7.87867 33.8812 7.63336 33.4983 7.46599C33.1155 7.29861 32.7051 7.21245 32.2907 7.21242H32.1737C31.2973 7.21026 30.4558 7.57498 29.834 8.22657C29.2121 8.87816 28.8606 9.76341 28.8566 10.6881C28.8574 11.5136 29.1686 12.305 29.7218 12.8887C30.275 13.4725 31.0251 13.8008 31.8075 13.8018H32.6017C32.9641 13.8018 33.3116 13.9536 33.5678 14.224C33.824 14.4943 33.968 14.861 33.968 15.2433C33.968 15.6256 33.824 15.9923 33.5678 16.2626C33.3116 16.5329 32.9641 16.6848 32.6017 16.6848H32.6013Z" fill="#FECB38"/>
<path d="M1.32849 0.0312764H7.24996C10.4921 0.0312764 11.9556 2.95332 11.9556 4.80647C11.9938 5.25578 11.8735 5.70417 11.6179 6.06574C11.5195 6.22754 11.3822 6.35893 11.2201 6.44655C11.0579 6.53417 10.8766 6.57488 10.6947 6.56453C10.5106 6.56774 10.3275 6.53552 10.1544 6.46945C9.36642 6.20817 9.09605 5.6145 9.09605 5.09152V4.80647C9.09605 3.97508 8.69091 2.92975 7.24977 2.92975H2.76943V13.7621L8.47114 13.7286C8.80691 13.7459 9.14033 13.6611 9.43171 13.4842C9.72308 13.3073 9.96013 13.0458 10.1147 12.7308C10.275 12.4436 10.3532 12.1136 10.34 11.7805C10.34 10.9256 9.68777 9.95137 8.47114 9.95137L5.58392 9.98495C3.82775 9.98495 3.82775 7.18155 5.58392 7.18155H7.74543C11.619 7.18155 13.1041 9.58083 13.1041 11.6953C13.1041 11.7666 13.0817 12.0279 13.0592 12.4791C13.0367 12.9303 12.8566 13.5009 12.4738 14.189C12.0657 14.9528 11.4692 15.5859 10.7477 16.021C10.0262 16.4561 9.20659 16.6772 8.37569 16.6606H1.32849C0.976342 16.66 0.638794 16.5121 0.38979 16.2493C0.140786 15.9866 0.000627212 15.6305 2.4672e-07 15.2589V1.43381C-0.00168785 1.2492 0.0315157 1.06609 0.0976708 0.895175C0.163826 0.724263 0.261602 0.568976 0.385291 0.438393C0.508979 0.307811 0.6561 0.20455 0.818047 0.134647C0.979994 0.064745 1.15352 0.0296051 1.32849 0.0312764Z" fill="#FECB38"/>
<path d="M17.1544 5.85098V15.1847C17.1544 15.569 17.0097 15.9376 16.7521 16.2093C16.4946 16.4811 16.1452 16.6337 15.781 16.6337C15.4168 16.6337 15.0675 16.4811 14.8099 16.2093C14.5524 15.9376 14.4077 15.569 14.4077 15.1847V5.85098C14.4077 5.46667 14.5524 5.0981 14.8099 4.82636C15.0675 4.55461 15.4168 4.40195 15.781 4.40195C16.1452 4.40195 16.4946 4.55461 16.7521 4.82636C17.0097 5.0981 17.1544 5.46667 17.1544 5.85098Z" fill="#FECB38"/>
<path d="M47.2979 5.85098V15.1847C47.2979 15.569 47.1532 15.9376 46.8957 16.2093C46.6381 16.4811 46.2888 16.6337 45.9246 16.6337C45.5603 16.6337 45.211 16.4811 44.9535 16.2093C44.6959 15.9376 44.5512 15.569 44.5512 15.1847V5.85098C44.5512 5.46667 44.6959 5.0981 44.9535 4.82636C45.211 4.55461 45.5603 4.40195 45.9246 4.40195C46.2888 4.40195 46.6381 4.55461 46.8957 4.82636C47.1532 5.0981 47.2979 5.46667 47.2979 5.85098Z" fill="#FECB38"/>
<path d="M42.738 1.4653V15.1845C42.738 15.3748 42.7024 15.5632 42.6334 15.739C42.5644 15.9148 42.4632 16.0746 42.3357 16.2091C42.2082 16.3437 42.0568 16.4504 41.8902 16.5232C41.7235 16.596 41.5449 16.6335 41.3646 16.6335C41.0004 16.6335 40.6511 16.4808 40.3936 16.209C40.136 15.9373 39.9913 15.5688 39.9912 15.1845V1.4653C39.9912 1.27501 40.0268 1.08658 40.0958 0.910777C40.1648 0.734972 40.266 0.575234 40.3935 0.440679C40.521 0.306124 40.6724 0.199387 40.839 0.126567C41.0057 0.0537462 41.1842 0.0162659 41.3646 0.0162659C41.7288 0.0162659 42.0781 0.168933 42.3357 0.440679C42.5933 0.712425 42.738 1.08099 42.738 1.4653Z" fill="#FECB38"/>
<path d="M54.7088 4.423C57.3883 4.423 60 6.2284 60 10.0531V15.1845C60.0047 15.3782 59.9717 15.5708 59.9029 15.7505C59.8341 15.9301 59.7311 16.0929 59.6002 16.2288C59.4693 16.3647 59.3134 16.4707 59.142 16.5403C58.9707 16.61 58.7876 16.6417 58.6041 16.6335C58.4213 16.6432 58.2386 16.6124 58.0678 16.543C57.897 16.4737 57.7419 16.3673 57.6125 16.2307C57.483 16.0942 57.3822 15.9305 57.3164 15.7503C57.2506 15.5701 57.2214 15.3774 57.2306 15.1845V10.0531C57.2306 8.24775 55.8798 7.2975 54.5287 7.2975C53.2004 7.2975 51.8494 8.24775 51.8494 10.0531V15.1845C51.8494 15.5689 51.7047 15.9375 51.4471 16.2093C51.1895 16.481 50.8402 16.6337 50.4759 16.6337C50.1116 16.6337 49.7622 16.481 49.5046 16.2093C49.247 15.9375 49.1023 15.5689 49.1023 15.1845V10.0531C49.1025 6.3948 51.9395 4.423 54.7088 4.423Z" fill="#FECB38"/>
<path d="M45.9374 2.89368C46.6906 2.89368 47.3011 2.2495 47.3011 1.45487C47.3011 0.660231 46.6906 0.0160522 45.9374 0.0160522C45.1843 0.0160522 44.5738 0.660231 44.5738 1.45487C44.5738 2.2495 45.1843 2.89368 45.9374 2.89368Z" fill="#FECB38"/>
<path d="M15.781 2.89368C16.5341 2.89368 17.1447 2.2495 17.1447 1.45487C17.1447 0.660231 16.5341 0.0160522 15.781 0.0160522C15.0279 0.0160522 14.4173 0.660231 14.4173 1.45487C14.4173 2.2495 15.0279 2.89368 15.781 2.89368Z" fill="#FECB38"/>
</g>
<defs>
<clipPath id="clip0_2_73">
<rect width="60" height="21" fill="white"/>
</clipPath>
</defs>
</svg>
