<svg width="28" height="32" viewBox="0 0 28 32" fill="none" xmlns="http://www.w3.org/2000/svg">
<path d="M13.9997 15.5001L27.3051 7.74994C26.8501 6.95453 26.1954 6.29406 25.407 5.83499L16.5922 0.700888C15.8039 0.241729 14.9097 0 13.9994 0C13.0892 0 12.195 0.241729 11.4067 0.700888L2.59305 5.83676C1.80463 6.29582 1.14997 6.95629 0.694946 7.7517L13.9997 15.5001Z" fill="#FECB38"/>
<path d="M13.9998 31.0004C14.9101 31.0005 15.8045 30.7587 16.5928 30.2993L25.407 25.1652C26.1954 24.706 26.85 24.0456 27.3052 23.2502C27.7604 22.4549 28 21.5526 28 20.6342V10.3672C28.0001 9.44875 27.7605 8.54647 27.3051 7.75116L13.9998 15.5013V31.0004Z" fill="#EFB638"/>
<path d="M14.0003 15.5024L0.694926 7.75226C0.239557 8.54756 -0.000126251 9.44984 4.98895e-08 10.3683V20.6353C2.19508e-05 21.5537 0.239661 22.456 0.694833 23.2513C1.15 24.0467 1.80467 24.7071 2.59303 25.1663L11.4073 30.3004C12.1956 30.7598 13.0899 31.0016 14.0003 31.0015V15.5024Z" fill="#CB9633"/>
</svg>
